<?xml version="1.0" encoding="utf-8"?>
<!-- Generator: Adobe Illustrator 26.4.1, SVG Export Plug-In . SVG Version: 6.00 Build 0)  -->
<svg version="1.1" id="Camada_1" xmlns="http://www.w3.org/2000/svg" xmlns:xlink="http://www.w3.org/1999/xlink" x="0px" y="0px"
	 viewBox="0 0 500 500" style="enable-background:new 0 0 500 500;" xml:space="preserve">
<style type="text/css">
	.st0{fill:#69C3CE;}
</style>
<g>
	<g>
		<path class="st0" d="M398.4,213c-8.4,4.5-16.5,10-25.1,14.1c-4.2-1.3-4.9-4.3-4.9-7.8c0-16-0.1-31.9,0.1-47.9
			c0.1-7-2.9-11.9-8.7-15.3c-8.3-4.9-16.6-9.6-24.9-14.3c-22.7-13-45.3-26.1-68-39c-4.8-2.7-9.3-6.2-14.9-7.6
			c-3.7-0.9-7.3-1.2-10.8,0.8c-11.3,6.5-22.7,12.9-34,19.4c-20.5,11.8-41,23.5-61.4,35.4c-4.9,2.9-10.3,5.1-14.3,9.4
			c-2.6,2.7-4.2,5.8-4.2,9.6c0,41.9,0,83.8,0.1,125.7c0,0.6,0,1.2,0,1.4c2.6,6,7.1,9.1,12.3,12c20.2,11.4,40.3,23.1,60.4,34.8
			c14,8.1,27.8,16.4,41.9,24.3c4.3,2.4,9.4,1.5,13.5-0.8c19.8-11.2,39.4-22.8,59.1-34.1c14.9-8.6,29.9-17.2,44.9-25.8
			c5.8-3.3,9.2-8,9-15.1c-0.2-10.5,0-21-0.1-31.4c0-3.8,1.1-6.5,4.7-8.4c6.2-3.2,12.1-6.9,18.1-10.4c1.3-0.8,2.6-1.4,4.1-1.8
			c3.7,1.4,4.5,2.4,4.5,6.2c0,20.8,0.1,41.7,0,62.5c0,7.9-4.2,13.5-10.9,17.3c-13.7,7.8-27.4,15.6-41.1,23.5
			c-18.6,10.7-37.3,21.5-55.9,32.2c-11.6,6.7-23.1,13.6-34.9,20.1c-6,3.3-12.1,3.4-18.3-0.3c-14.6-8.7-29.5-17.1-44.2-25.6
			c-22.3-12.9-44.6-25.7-66.9-38.6c-7.3-4.2-14.7-8.4-21.9-12.8c-6-3.6-9.1-8.6-9-15.9c0.2-51.8,0.2-103.5,0-155.3
			c0-7.3,3.1-12,9-15.4c25.5-14.7,51.1-29.3,76.6-44C200.6,83.4,219,72.6,237.5,62c6.5-3.8,13.4-3.8,19.9-0.3
			c10.7,5.8,21,12.2,31.6,18.3c9.5,5.5,19,10.7,28.4,16.2c13,7.5,25.9,15.2,38.9,22.7c11,6.3,21.9,12.7,33,18.8
			c7.4,4,10.5,9.9,10.5,18.2c-0.2,17-0.1,33.9,0,50.9C399.8,208.8,399.6,210.8,398.4,213z"/>
		<path class="st0" d="M316.6,192.3c-9.2,5.3-17.8,10.2-26.4,15.2c-10.7,6.1-21.3,12.3-32,18.5c-7.2,4.2-13.9,3.9-21.2-0.4
			c-24.9-14.6-49.9-28.9-74.9-43.3c-6.8-3.9-6.9-11.9-0.2-15.8c24.9-14.4,49.8-28.5,74.6-43.1c5.1-3,10.2-3.4,15.7-3.3
			c1.2,0,2.2,0.5,3.1,1.1c9.3,5.3,18.6,10.5,27.8,16c2.5,1.5,5.6,2.2,7.3,5.2c0.2,1.1,0.2,2.3,0,3.5c-2.3,2.4-21.5,13.8-26,15.4
			c-3-0.6-5.4-2.8-8.2-4.1c-5.7-2.7-11.3-2.9-17,0.5c-6.1,3.6-12.3,7-18.5,10.5c-2.2,1.3-4.7,2.3-6.4,4.8c0,0.8,0,1.8,0,2.9
			c0.8,1.4,2,2.6,3.4,3.3c7.8,4.3,15.5,8.7,23.1,13.2c3.5,2.1,7.6,2.3,11.7,0.7c6.1-2.3,11.5-6,17.1-9.1
			c14.9-8.5,29.7-17.1,44.6-25.6c1.9-1.1,3.8-1.1,5.7,0c8.2,4.7,16.4,9.4,24.4,14.2c2.4,1.4,3.2,3.9,3.2,6.7c0,13.1,0,26.2,0,39.3
			c0,21.6,0,43.2,0,64.7c0,4.2-1.5,7-5.1,9.1c-17.2,9.8-34.3,19.7-51.4,29.6c-10.6,6.1-21.1,12.2-31.6,18.3
			c-7.4,4.3-14.7,5.5-22.2,0.2c-2.4-1.7-5.2-2.9-7.8-4.4c-25.1-14.5-50.1-29.1-75.2-43.5c-3.8-2.2-5.8-5.1-5.8-9.6
			c0.1-24.4,0-48.9,0-73.3c0-2.1,0.2-4,1.9-5.3c3-0.6,5.7-0.1,8.3,1.5c5.6,3.4,11.4,6.7,17.1,10c1.3,0.8,2.5,1.7,3.6,3.4
			c0,3.7,0,7.8,0,11.9c0,10.6,0,21.2,0,31.8c0,3.2,0.5,6.2,1.7,9.3c9.1,5.9,18.8,11,28.2,16.6c10.2,6.1,20.7,11.7,30.8,18.1
			c5,3.2,10.5,2.8,15.4,0.2c10.2-5.5,20.1-11.4,30.1-17.2c9.3-5.3,18.5-10.7,27.7-16.1c1.3-0.7,2.7-1.3,3.6-2.8
			C316.6,244.9,316.6,219,316.6,192.3z"/>
	</g>
</g>
<g>
</g>
<g>
</g>
<g>
</g>
<g>
</g>
<g>
</g>
<g>
</g>
</svg>
