<?xml version="1.0" encoding="utf-8"?>
<!-- Generator: Adobe Illustrator 26.4.1, SVG Export Plug-In . SVG Version: 6.00 Build 0)  -->
<svg version="1.1" id="Camada_1" xmlns="http://www.w3.org/2000/svg" xmlns:xlink="http://www.w3.org/1999/xlink" x="0px" y="0px"
	 viewBox="0 0 342 175.1" style="enable-background:new 0 0 342 175.1;" xml:space="preserve">
<style type="text/css">
	.st0{fill:#58D0D6;}
</style>
<g>
	<path class="st0" d="M104.1,93.5c0,9.9,0,20,0,30.1c0,2.7-1,4.4-2.1,5.6c-1.3,1.5-2.7,2.8-4.2,3.9c-5.2,3.9-10.3,8.6-15.4,12.9
		c-6.5,5.4-13,11-19.4,16.5c-1.2,1.1-2.4,2.4-3.8,2.7c-2,0.4-3.7-0.9-5.5-2.4c-5.8-5-11.7-9.9-17.5-15c-4.9-4.4-10-8.2-14.9-12.8
		c-2.1-1.9-4.2-3.5-6.3-5.2c-1.9-1.5-2.6-4.2-2.6-8.1c0-22.5,0-45,0-67.5c0-3.6,0.8-6,2.5-7.5c7.8-6.6,15.7-13.3,23.5-20
		c5.6-4.8,11.3-9.7,16.9-14.4c2.2-1.9,4.5-1.3,6.7,0.7c8.8,7.7,17.6,15.2,26.5,22.6c4.1,3.4,8.2,7.1,12.4,10.6
		c0.4,0.4,0.9,0.7,1.2,1.2c1.2,1.7,2.1,3.5,2,6.7c-0.1,8.4,0,16.8,0,25.2c-2.3,2.3-4.5,4.1-6.8,6c-0.4,0.3-0.7,0.6-1.1,0.6
		c-1.2,0-1.7-0.9-1.7-3.4c0-6.8-0.1-13.5,0-20.3c0.1-4.1-0.9-6.3-2.7-7.8c-5-4.2-10-8.6-15-12.7c-5.2-4.2-10.2-8.7-15.3-13.2
		c-2.1-1.9-4.2-1.9-6.3,0c-5.3,4.7-10.6,9.1-16,13.7c-3.9,3.4-7.8,6.7-11.8,9.9c-1.4,1.2-3,2-4.3,4.1c-0.9,1.4-1.3,3-1.3,5.1
		c0,18,0,35.9,0,53.9c0,3.1,0.9,4.9,2.2,6.1c4.5,3.9,9,7.8,13.5,11.6c4.8,4.1,9.5,8,14.3,12.1c1.1,1,2.3,2,3.4,3
		c2.1,1.7,4.2,1.8,6.3-0.1c4.6-3.9,9.2-7.9,13.8-11.7c5.6-4.5,11-9.5,16.6-14.2c1.8-1.5,2.7-3.7,2.6-7.6c-0.1-4.3,0-8.6,0-13
		c0-1.6,0.2-2.8,1-3.4c2.2-1.9,4.4-3.9,6.6-5.5C102.8,92,103.5,92.3,104.1,93.5z"/>
	<path class="st0" d="M78.9,71.4c-1.7,0.6-3,2.2-4.3,3.3c-3.9,3.1-7.6,6.7-11.5,9.6c-0.6,0.4-1.1,1.1-1.7,1.7
		c-2.6,2.6-5.1,1.1-7.6-1c-4-3.4-7.9-6.8-11.9-10.2c-3.2-2.7-6.4-5.4-9.6-8.1c-0.9-0.7-1.7-1.5-1.6-3.8c0-2.1,0.7-3,1.6-3.7
		c3.5-2.9,7-6,10.5-8.9c4.2-3.6,8.5-7.1,12.7-10.8c2.1-1.9,4.2-1.2,6.1,0.5c2.6,2.3,5.2,4.6,7.8,6.7c0.1,0.1,0.2,0.2,0.3,0.3
		c0.5,0.7,1.3,0.6,1.4,2.2c0,1.6-0.8,1.8-1.3,2.3c-1.7,1.6-3.4,3-5.1,4.6c-1.1,0.9-2.1,1.2-3.1,0c-2.6-3-5.1-1.9-7.5,0.5
		c-1.5,1.4-3,2.5-4.5,3.9c-0.6,0.5-1.2,0.9-1.2,2.5c0,1.6,0.6,2,1.2,2.5c2.1,1.8,4.3,3.4,6.5,5.3c1.7,1.5,3.4,1,5-0.3
		c5.5-4.6,11-9.3,16.4-14c1.1-1,2.2-1,3.3,0c1.8,1.7,3.7,3.2,5.6,4.8c1.7,1.4,1.8,1.7,1.8,5.4c0,7.4,0,14.9,0,22.3
		c0,7.3,0,14.6,0,21.9c0,3.3-0.2,3.7-1.7,4.9c-5.5,4.6-11,9.3-16.4,14c-2.8,2.4-5.7,4.6-8.4,7.3c-2.7,2.7-5.3,1.4-7.9-0.9
		c-3.8-3.5-7.7-6.7-11.6-10c-4.1-3.5-8.2-6.8-12.2-10.3c-1.2-1.1-2-2.8-2-5.9c0.1-10.1,0-20.2,0-30.3c0-3.8,1-4.9,2.8-3.2
		c1.7,1.6,3.4,3.2,5.2,4.4c1.2,0.8,1.4,2.1,1.4,4.2c0,5.5,0.1,11.1-0.1,16.6c-0.1,3.2,0.7,4.8,2.1,6c2.2,1.9,4.4,3.8,6.6,5.7
		c3.3,2.8,6.7,5.6,10,8.5c1.7,1.5,3.3,1.2,4.8-0.1c5.6-4.6,11.1-9.5,16.6-14.1c1.1-0.9,1.5-2.1,1.5-4.4c-0.1-9.5,0-19.1,0-28.6
		C78.9,73.6,78.9,72.7,78.9,71.4z"/>
	<path class="st0" d="M312.8,115.9c0-14.8,0-29,0-43.5c-2.4,0-4.8,0-7.2,0c0,14.3,0,28.6,0,43.3c-2.6,0.4-5,0.3-7.6,0
		c0-14.5,0-28.8,0-43.3c-2.5,0-4.8,0-7.3,0c0,14.4,0,28.8,0,43.5c-2.3,0-4.5,0-6.7,0c-0.7,0-0.9-0.8-0.9-2c0-0.9,0-1.8,0-2.7
		c0-11.9,0.2-23.7-0.1-35.6c-0.2-9.5,3.4-14.5,7.3-14.6c7.6-0.3,15.2-0.2,22.8,0c2.8,0.1,5.2,2.4,6.7,7.3c0.4,1.3,0.5,2.9,0.5,4.5
		c0,13.4,0,26.8,0,40.2c0,2.7-0.1,2.8-1.5,2.8C317,115.9,315,115.9,312.8,115.9z"/>
	<path class="st0" d="M107.6,104.6c9.9,0,19.5,0,29.3,0c0-3.5,0-6.8,0-10.1c-0.6-0.8-1.2-0.4-1.8-0.4c-6.5,0-12.9-0.1-19.4,0
		c-1.8,0-3.4-0.6-5-2.1c-1.9-2-3.4-4.7-3.2-9.5c0.1-3.5,0.1-7.1,0-10.6c-0.1-3.4,0.9-5.7,2.1-7.4c1.6-2.2,3.4-3.4,5.5-3.4
		c9.3,0,18.7,0,28,0c0.4,0,0.9-0.2,1.4,0.5c0.1,3.4,0.1,6.9,0,10.7c-9.8,0-19.5,0-29.3,0c-0.2,3.6-0.1,6.9-0.1,10.1
		c0.7,0.9,1.3,0.6,1.9,0.6c6.6,0,13.1,0.1,19.7,0c1.9,0,3.5,0.9,5.1,2.7c1.7,2.1,2.8,5,2.8,9.1c0,2.5-0.1,5.1,0,7.6
		c0.4,7.9-3.4,13-6.7,13.2c-7.3,0.4-14.6-0.2-21.9,0.1c-2.8,0.1-5.5-0.2-8.3-0.1C107.4,111.8,107.5,108.5,107.6,104.6z"/>
	<path class="st0" d="M276.4,115.6c-2.5,0-4.9,0-7.5,0c0-3.8,0-7.3,0-10.8c0-3.4,0-6.9,0-10.5c-7.3,0-14.4,0-21.7,0
		c-0.4,0.8-0.2,1.8-0.2,2.8c0,5.3,0,10.6,0,16c0,2.7-0.1,2.8-1.5,2.8c-1.9,0-3.9,0-5.8,0c-0.5-1.4-0.3-2.7-0.3-3.8
		c0-12.9,0.2-25.7-0.1-38.6c-0.1-6.9,2.8-10.8,5.2-11.9c1.2-0.5,2.4-0.7,3.6-0.7c6.6,0.1,13.3,0,19.9,0.1c2.4,0,4.8,0.8,6.6,4.5
		c0.9,1.9,1.8,4,1.8,6.7c0,14.1,0,28.2,0,42.2C276.5,114.7,276.4,115,276.4,115.6z M247.1,82.5c7.4,0,14.6,0,21.7,0
		c0-3.5,0-6.8,0-10.2c-7.3,0-14.5,0-21.7,0C246.9,75.8,247,79,247.1,82.5z"/>
	<path class="st0" d="M169.9,60.9c3.6,0,7.3-0.1,10.9,0c2.6,0.1,4.9,1.7,6.6,5.8c0.8,1.9,1,4,1,6.1c0.1,10.4,0,20.8,0,31.2
		c0,6.6-2.7,10-5.9,11.3c-1.9,0.8-3.8,0.5-5.7,0.5c-5.6,0-11.2,0-16.8,0c-1.7,0-3.4-0.5-5-1.7c-1.6-1.3-2.6-3.4-3.3-6.6
		c-0.6-2.6-0.6-5-0.6-7.6c0-8.9,0-17.7,0-26.6c0-4.4,1.6-8.9,3.8-10.6c1.6-1.2,3.1-1.9,4.9-1.9C163.2,61,166.6,60.9,169.9,60.9z
		 M180.9,72.4c-7.4,0-14.7,0-21.9,0c0,10.9,0,21.6,0,32.2c7.4,0,14.6,0,21.9,0C180.9,93.7,180.9,83.2,180.9,72.4z"/>
	<path class="st0" d="M210.4,72.1c-5.1,0-9.9,0-14.8,0c0-3.7,0-7.3,0-11.1c12.2,0,24.2,0,36.4,0c0.3,3.5,0,7,0.2,10.9
		c-4.7,0-9.4,0-14.2,0c0,14.6,0,28.8,0,43.2c-2.6,0.6-5,0.2-7.6,0.3C210.4,101,210.4,86.8,210.4,72.1z"/>
</g>
</svg>
